# xmcd
# Track frame offsets:
# 150
# 15473
# 32966
# 50925
# 66322
# 78397
# 92800
# 109310
# 127983
# 140958
# 159265
# 173281
# 191303
# 204180
# 218719
# 236325
# 253517
#
# Disc length: 3570 seconds
# Revision: 0
# Processed by: cddbd v1.4PL0 Copyright (c) Steve Scherf et al.
# Submitted via: VisiTrax 2.9.5.180 - For more info visit www.synapsa.com
#
DISCID=e40df011
DTITLE=Various Artist - Country Complete  Volume 2 Disc 5
DYEAR=2001
DGENRE=
TTITLE0=Milsap, Ronnie - Time Love And Money
TTITLE1=Dixie Chicks - I Can Love You Better
TTITLE2=Davidson, Clay - Unconditional
TTITLE3=Van Shelton, Ricky - I Am A Simple Man
TTITLE4=Parton, Dolly - If You Need Me
TTITLE5=Highwaymen - Devil's Right Hand
TTITLE6=Tucker, Tanya - I Won't Take Less Than Your Love
TTITLE7=Urban, Keith - Your Everything
TTITLE8=Mandrell, Barbara - I Wish That I Could Fall In Love Today
TTITLE9=Berry, John - Standing On The Edge Of Goodbye
TTITLE10=Adkins, Trace - More
TTITLE11=Chambers, Kasey - Cry Like A Baby
TTITLE12=LeDoux, Chris - Cadillac Ranch
TTITLE13=Carter, Deana - Did I Shave My Legs For This
TTITLE14=Warner, Steve - Faith In You
TTITLE15=Williams, Don - Old Coyote Town
TTITLE16=Kernaghan, Lee - Walkin' Out West
EXTD=EMI Australia
EXTT0=
EXTT1=
EXTT2=
EXTT3=
EXTT4=
EXTT5=
EXTT6=
EXTT7=
EXTT8=
EXTT9=
EXTT10=
EXTT11=
EXTT12=
EXTT13=
EXTT14=
EXTT15=
EXTT16=
PLAYORDER=
